<?xml version="1.0" encoding="UTF-8" standalone="no"?>
<!-- Created with Inkscape (http://www.inkscape.org/) -->

<svg
   version="1.1"
   id="svg182"
   width="3110.886"
   height="3110.886"
   viewBox="0 0 3110.886 3110.886"
   xmlns="http://www.w3.org/2000/svg"
   xmlns:svg="http://www.w3.org/2000/svg">
  <defs
     id="defs186" />
  <g
     id="g188">
    <path
       style="fill:#000000;stroke-width:6.07595"
       d="m 1515.2299,1773.1624 c -22.4121,-42.6076 -40.6941,-80.2025 -40.6266,-83.5443 0.067,-3.3418 77.7502,-145.519 172.6283,-315.9493 l 172.5057,-309.8734 105.1484,-1.6649 c 61.7478,-0.9776 104.2924,0.6284 103.0745,3.891 -1.1407,3.0557 -97.4505,180.8428 -214.0219,395.0825 l -211.9479,389.5268 h -23.0056 -23.0057 z m -1061.95028,55.4294 c -22.8071,-4.8929 -56.63077,-15.6022 -75.1637,-23.7984 -18.53294,-8.1961 -50.59425,-26.9602 -71.24736,-41.698 -20.65311,-14.7377 -47.97055,-38.3289 -60.70542,-52.4249 -12.73486,-14.096 -31.73471,-43.7385 -42.22188,-65.8723 l -19.06759,-40.2434 -1.80425,-277.9746 -1.80426,-277.9747 h 85.34856 85.34855 v 239.0295 239.0296 l 18.51239,37.0465 c 10.18182,20.3756 28.45871,45.7796 40.61532,56.4532 12.15661,10.6736 35.95262,25.8557 52.88001,33.7379 23.16392,10.7863 41.43361,14.3461 73.85726,14.3907 35.92963,0.049 49.22924,-3.0133 80.12671,-18.453 20.37564,-10.1818 45.77961,-28.4587 56.45323,-40.6153 10.67362,-12.1566 25.85571,-35.9526 33.73792,-52.88 14.28808,-30.6841 14.33152,-31.4973 14.3907,-269.2581 l 0.0594,-238.481 h 85.34855 85.34856 l -1.80426,278.3046 -1.80425,278.3048 -22.90518,46.3306 c -17.15009,34.6896 -32.8967,55.486 -62.67074,82.7685 -24.26831,22.2375 -59.14766,45.9445 -89.49982,60.8316 -27.35393,13.4166 -70.80899,28.6552 -96.56683,33.8635 -25.75786,5.2084 -64.03634,9.2468 -85.0633,8.9744 -21.02696,-0.2722 -56.89119,-4.4987 -79.69829,-9.3917 z m 2043.49268,-17.3846 c -21.7215,-4.8877 -62.7341,-20.308 -91.1392,-34.2675 -40.4607,-19.8841 -62.3004,-36.0356 -100.8438,-74.579 -38.5898,-38.5898 -54.6626,-60.3344 -74.5398,-100.8438 -13.9379,-28.4051 -29.3461,-70.7849 -34.2406,-94.1773 -4.8944,-23.3924 -8.899,-61.6708 -8.899,-85.0632 0,-23.3924 4.0046,-61.6709 8.899,-85.0633 4.8945,-23.3924 19.6825,-64.4051 32.8623,-91.1393 13.3874,-27.1553 39.0073,-65.2257 58.0507,-86.2617 18.748,-20.7098 52.8245,-50.1106 75.7255,-65.3351 22.901,-15.2246 59.03,-34.222 80.2866,-42.2166 21.2567,-7.9945 60.3009,-17.813 86.7651,-21.8187 26.4641,-4.0058 63.3755,-5.5683 82.0253,-3.4722 18.6498,2.0961 47.5796,6.7344 64.2884,10.3074 16.7089,3.5729 52.2532,16.957 78.9874,29.7425 26.7341,12.7855 62.3491,34.9919 79.1443,49.3478 16.7952,14.3559 42.2448,39.8431 56.5548,56.6383 14.31,16.7952 35.3008,49.6759 46.6463,73.0683 11.3455,23.3924 24.7105,56.8861 29.6999,74.4304 l 9.0718,31.8987 -86.2548,-0.012 -86.2547,-0.012 -17.3156,-33.1393 c -9.5235,-18.2266 -30.8007,-45.7531 -47.2826,-61.17 -16.4819,-15.4169 -45.344,-35.0705 -64.138,-43.6747 -21.4323,-9.812 -49.2766,-16.7247 -74.6918,-18.5432 -27.7101,-1.9826 -51.9024,0.3725 -76.5212,7.449 -19.8001,5.6916 -49.3157,18.8242 -65.5903,29.1835 -16.2745,10.3594 -40,32.0048 -52.7232,48.1009 -12.7233,16.0962 -29.0595,44.9929 -36.3027,64.2151 -10.8875,28.8933 -12.7588,44.425 -10.799,89.6329 2.076,47.8926 4.8945,59.401 22.6954,92.6709 11.1787,20.8932 32.4494,49.1634 47.2683,62.8229 14.8187,13.6595 42.46,32.1095 61.4251,40.9999 30.1752,14.1456 42.0706,16.1569 95.2414,16.1033 53.8843,-0.055 64.6211,-1.9515 94.8863,-16.767 18.7697,-9.1881 47.7267,-30.3055 64.3487,-46.9276 16.622,-16.622 35.1739,-41.2034 41.2263,-54.6254 l 11.0045,-24.4081 h 87.1785 c 47.9481,0 87.1785,2.3061 87.1785,5.1247 0,2.8187 -5.3449,20.66 -11.8775,39.6474 -6.5327,18.9875 -20.8773,51.4078 -31.877,72.0453 -10.9996,20.6374 -37.7813,55.5211 -59.5149,77.5193 -21.7334,21.9981 -55.9468,49.9563 -76.0295,62.1293 -20.0827,12.1731 -58.3612,29.4837 -85.0633,38.4681 -36.2375,12.1928 -63.9574,16.9087 -109.3087,18.5967 -39.211,1.4594 -74.7661,-0.8903 -100.2532,-6.6253 z m -1107.664,-271.4918 c -8.2855,-14.4649 -64.8535,-116.5277 -125.7068,-226.8061 -60.8532,-110.2785 -117.3165,-212.1266 -125.4741,-226.3291 l -14.8319,-25.8228 h 105.9369 105.937 l 86.572,156.4557 c 47.6146,86.0506 86.5417,159.1898 86.5046,162.5316 -0.036,3.3418 -22.3074,45.5034 -49.4896,93.6925 -27.1823,48.1891 -50.5385,88.7328 -51.9029,90.0973 -1.3644,1.3643 -9.2597,-9.3543 -17.5452,-23.8191 z"
       id="path300" />
  </g>
</svg>
