<?xml version="1.0" encoding="UTF-8"?>
<!-- Created with Inkscape (http://www.inkscape.org/) -->
<svg width="3110.9" height="3110.9" version="1.1" viewBox="0 0 3110.9 3110.9" xmlns="http://www.w3.org/2000/svg">
 <path d="m1515.2 1773.2c-22.412-42.608-40.694-80.202-40.627-83.544 0.067-3.3418 77.75-145.52 172.63-315.95l172.51-309.87 105.15-1.6649c61.748-0.9776 104.29 0.6284 103.07 3.891-1.1407 3.0557-97.45 180.84-214.02 395.08l-211.95 389.53h-46.011zm-1062 55.429c-22.807-4.8929-56.631-15.602-75.164-23.798-18.533-8.1961-50.594-26.96-71.247-41.698-20.653-14.738-47.971-38.329-60.705-52.425-12.735-14.096-31.735-43.738-42.222-65.872l-19.068-40.243-1.8042-277.97-1.8043-277.97h170.7v478.06l18.512 37.046c10.182 20.376 28.459 45.78 40.615 56.453s35.953 25.856 52.88 33.738c23.164 10.786 41.434 14.346 73.857 14.391 35.93 0.049 49.229-3.0133 80.127-18.453 20.376-10.182 45.78-28.459 56.453-40.615s25.856-35.953 33.738-52.88c14.288-30.684 14.332-31.497 14.391-269.26l0.0594-238.48h170.7l-1.8043 278.3-1.8042 278.3-22.905 46.331c-17.15 34.69-32.897 55.486-62.671 82.768-24.268 22.238-59.148 45.944-89.5 60.832-27.354 13.417-70.809 28.655-96.567 33.864-25.758 5.2084-64.036 9.2468-85.063 8.9744-21.027-0.2722-56.891-4.4987-79.698-9.3917zm2043.5-17.385c-21.722-4.8877-62.734-20.308-91.139-34.268-40.461-19.884-62.3-36.036-100.84-74.579-38.59-38.59-54.663-60.334-74.54-100.84-13.938-28.405-29.346-70.785-34.241-94.177-4.8944-23.392-8.899-61.671-8.899-85.063s4.0046-61.671 8.899-85.063c4.8945-23.392 19.682-64.405 32.862-91.139 13.387-27.155 39.007-65.226 58.051-86.262 18.748-20.71 52.824-50.111 75.726-65.335 22.901-15.225 59.03-34.222 80.287-42.217 21.257-7.9945 60.301-17.813 86.765-21.819 26.464-4.0058 63.376-5.5683 82.025-3.4722s47.58 6.7344 64.288 10.307c16.709 3.5729 52.253 16.957 78.987 29.742 26.734 12.786 62.349 34.992 79.144 49.348s42.245 39.843 56.555 56.638 35.301 49.676 46.646 73.068 24.71 56.886 29.7 74.43l9.0718 31.899-172.51-0.024-17.316-33.139c-9.5235-18.227-30.801-45.753-47.283-61.17s-45.344-35.07-64.138-43.675c-21.432-9.812-49.277-16.725-74.692-18.543-27.71-1.9826-51.902 0.3725-76.521 7.449-19.8 5.6916-49.316 18.824-65.59 29.184-16.274 10.359-40 32.005-52.723 48.101-12.723 16.096-29.06 44.993-36.303 64.215-10.888 28.893-12.759 44.425-10.799 89.633 2.076 47.893 4.8945 59.401 22.695 92.671 11.179 20.893 32.449 49.163 47.268 62.823 14.819 13.66 42.46 32.11 61.425 41 30.175 14.146 42.071 16.157 95.241 16.103 53.884-0.055 64.621-1.9515 94.886-16.767 18.77-9.1881 47.727-30.306 64.349-46.928 16.622-16.622 35.174-41.203 41.226-54.625l11.004-24.408h87.178c47.948 0 87.178 2.3061 87.178 5.1247 0 2.8187-5.3449 20.66-11.878 39.647-6.5327 18.988-20.877 51.408-31.877 72.045-11 20.637-37.781 55.521-59.515 77.519-21.733 21.998-55.947 49.956-76.03 62.129-20.083 12.173-58.361 29.484-85.063 38.468-36.238 12.193-63.957 16.909-109.31 18.597-39.211 1.4594-74.766-0.8903-100.25-6.6253zm-1107.7-271.49c-8.2855-14.465-64.854-116.53-125.71-226.81-60.853-110.28-117.32-212.13-125.47-226.33l-14.832-25.823h211.87l86.572 156.46c47.615 86.051 86.542 159.19 86.505 162.53-0.036 3.3418-22.307 45.503-49.49 93.692-27.182 48.189-50.538 88.733-51.903 90.097-1.3644 1.3643-9.2597-9.3543-17.545-23.819z" stroke-width="6.076"/>
</svg>
